<svg xmlns="http://www.w3.org/2000/svg" viewBox="0 0 700 320" width="100%" height="100%">
  <rect width="100%" height="100%" rx="8" fill="#f8fafc" stroke="#cbd5e1" stroke-width="1.5"/>
  <text x="30" y="26" font-family="Inter" font-size="14" font-weight="700" fill="#0f172a">Кинематика автомобиля: Модель велосипеда и геометрия Аккермана</text>
  <g transform="translate(60, 50)">
    <!-- Base frame line -->
    <line x1="50" y1="160" x2="210" y2="160" stroke="#0f172a" stroke-width="4"/>
    <text x="115" y="180" font-family="JetBrains Mono" font-size="11" font-weight="700" fill="#0f172a">База L</text>
    <!-- Rear Wheel -->
    <rect x="35" y="140" width="30" height="40" rx="3" fill="#334155"/>
    <circle cx="50" cy="160" r="4" fill="#38bdf8"/>
    <text x="15" y="210" font-family="Inter" font-size="10.5" font-weight="700" fill="#0369a1">(x, y, &#952;)</text>
    <line x1="50" y1="160" x2="10" y2="160" stroke="#0284c7" stroke-width="2.5"/>
    <polygon points="15,156 5,160 15,164" fill="#0284c7"/>
    <text x="15" y="135" font-family="JetBrains Mono" font-size="10" fill="#0284c7">v_rear</text>
    <!-- Front Wheel with steering angle delta -->
    <g transform="translate(210, 160) rotate(-28)">
      <rect x="-15" y="-20" width="30" height="40" rx="3" fill="#334155"/>
      <circle cx="0" cy="0" r="4" fill="#f59e0b"/>
      <line x1="0" y1="0" x2="40" y2="0" stroke="#d97706" stroke-width="2.5"/>
      <polygon points="35,-4 45,0 35,4" fill="#d97706"/>
      <text x="10" y="-10" font-family="JetBrains Mono" font-size="10" fill="#d97706">v_front</text>
    </g>
    <!-- Steering angle arc -->
    <path d="M240,160 A30,30 0 0,0 236,146" stroke="#d97706" stroke-width="1.5" fill="none"/>
    <text x="245" y="152" font-family="JetBrains Mono" font-size="11" font-weight="700" fill="#d97706">&#948;</text>
    <!-- ICR and radius lines -->
    <line x1="50" y1="160" x2="50" y2="25" stroke="#94a3b8" stroke-width="1.5" stroke-dasharray="3 3"/>
    <line x1="210" y1="160" x2="50" y2="25" stroke="#94a3b8" stroke-width="1.5" stroke-dasharray="3 3"/>
    <circle cx="50" cy="25" r="5" fill="#dc2626"/>
    <text x="60" y="30" font-family="Inter" font-size="11" font-weight="700" fill="#dc2626">МЦВ (ICR)</text>
    <text x="10" y="90" font-family="JetBrains Mono" font-size="10" fill="#475569">R = L / tan(&#948;)</text>
  </g>
  <g transform="translate(380, 50)">
    <rect width="280" height="235" rx="6" fill="#ffffff" stroke="#e2e8f0"/>
    <text x="15" y="24" font-family="Inter" font-size="13" font-weight="700" fill="#0f172a">Уравнения движения:</text>
    <g transform="translate(15, 45)">
      <text x="0" y="0" font-family="JetBrains Mono" font-size="11" fill="#0284c7">x&#775; = v &#183; cos(&#952;)</text>
      <text x="0" y="22" font-family="JetBrains Mono" font-size="11" fill="#0284c7">y&#775; = v &#183; sin(&#952;)</text>
      <text x="0" y="44" font-family="JetBrains Mono" font-size="11" fill="#0284c7">&#952;&#775; = (v / L) &#183; tan(&#948;)</text>
      <text x="0" y="72" font-family="Inter" font-size="11" font-weight="700" fill="#dc2626">Связь Пфаффа (без проскальзывания):</text>
      <text x="0" y="92" font-family="JetBrains Mono" font-size="11" fill="#dc2626">x&#775; sin(&#952;) - y&#775; cos(&#952;) = 0</text>
      <text x="0" y="118" font-family="Inter" font-size="11" fill="#334155">• Неголономное ограничение:</text>
      <text x="0" y="136" font-family="Inter" font-size="10.5" fill="#475569">  боковая скорость мгновенно = 0</text>
      <text x="0" y="156" font-family="Inter" font-size="11" font-weight="600" fill="#16a34a">&#8658; Кривизна траектории: &#954; = tan(&#948;) / L</text>
      <text x="0" y="174" font-family="Inter" font-size="10.5" fill="#15803d">Ограничена: |&#954;| &#8804; tan(&#948;_max) / L</text>
    </g>
  </g>
</svg>