<svg xmlns="http://www.w3.org/2000/svg" viewBox="0 0 760 360" width="100%" height="100%">
  <rect width="100%" height="100%" rx="10" fill="#ffffff" stroke="#e2e8f0" stroke-width="1.5"/>

  <g transform="translate(24, 24)">
    <text x="0" y="0" font-family="Inter, sans-serif" font-size="15" font-weight="700" fill="#0f172a">Принцип Беллмана (HJB) и Линейно-Квадратичный Регулятор (LQR)</text>
    <text x="0" y="18" font-family="Inter, sans-serif" font-size="11.5" fill="#64748b">Сравнение: общее нелинейное PDE Беллмана и его аналитический шедевр через матричное уравнение Риккати</text>
  </g>

  <!-- Left: HJB & Bellman Principle -->
  <g transform="translate(24, 65)">
    <rect width="345" height="275" rx="8" fill="#f8fafc" stroke="#cbd5e1" stroke-width="1.2"/>
    <rect width="345" height="26" rx="8" fill="#475569"/>
    <text x="12" y="17" font-family="Inter" font-size="11.5" font-weight="700" fill="#ffffff">Уравнение Гамильтона-Якоби-Беллмана (HJB)</text>

    <!-- Schematic: Value function surface contours -->
    <g transform="translate(15, 38)">
      <rect width="315" height="100" rx="6" fill="#ffffff" stroke="#e2e8f0"/>

      <!-- Contours of V(x) -->
      <ellipse cx="160" cy="55" rx="130" ry="38" stroke="#cbd5e1" stroke-width="1" fill="none"/>
      <ellipse cx="160" cy="55" rx="90" ry="26" stroke="#94a3b8" stroke-width="1.2" fill="none"/>
      <ellipse cx="160" cy="55" rx="50" ry="15" stroke="#64748b" stroke-width="1.5" fill="none"/>
      <circle cx="160" cy="55" r="4.5" fill="#059669"/>
      <text x="160" y="74" text-anchor="middle" font-family="JetBrains Mono" font-size="9" font-weight="700" fill="#059669">V(0) = 0</text>

      <!-- Optimal trajectories descending gradient of V -->
      <path d="M 40,30 Q 90,40 160,55" stroke="#2563eb" stroke-width="2" fill="none"/>
      <polygon points="120,47 110,43 115,52" fill="#2563eb"/>
      <path d="M 280,25 Q 220,35 160,55" stroke="#2563eb" stroke-width="2" fill="none"/>
      <polygon points="200,43 210,39 205,48" fill="#2563eb"/>

      <text x="24" y="24" font-family="Inter" font-size="9" fill="#475569">Линии уровня функции цены V(x)</text>
      <text x="195" y="88" font-family="Inter" font-size="9" font-weight="700" fill="#2563eb">Траектории: ẋ = f(x, u*)</text>
    </g>

    <!-- HJB Formula box -->
    <g transform="translate(15, 148)" font-family="Inter" font-size="10.5" fill="#1e293b">
      <rect width="315" height="42" rx="4" fill="#eff6ff" stroke="#bfdbfe" stroke-width="1"/>
      <text x="10" y="18" font-family="JetBrains Mono" font-size="10.5" font-weight="700" fill="#1e40af">min_u [ l(x, u) + ∇V(x)ᵀ f(x, u) ] = 0</text>
      <text x="10" y="34" font-family="Inter" font-size="9.5" fill="#2563eb">Уравнение в частных производных (PDE) для V(x)</text>

      <text x="0" y="58" font-weight="700" fill="#0f172a">• Суть принципа оптимальности (Беллман):</text>
      <text x="10" y="72" font-size="9.5" fill="#475569">Каков бы ни был начальный путь, остаток пути обязан</text>
      <text x="10" y="86" font-size="9.5" fill="#475569">быть оптимальным относительно текущего состояния.</text>
      <text x="0" y="104" font-weight="700" fill="#dc2626">✖ Проклятие размерности (Curse of Dimensionality):</text>
      <text x="10" y="118" font-size="9.5" fill="#b91c1c">Сетка в ℝⁿ требует Mⁿ узлов (M=100, n=6 ⇒ 10¹² узлов!).</text>
    </g>
  </g>

  <!-- Right: LQR & Riccati -->
  <g transform="translate(391, 65)">
    <rect width="345" height="275" rx="8" fill="#f8fafc" stroke="#3b82f6" stroke-width="1.5"/>
    <rect width="345" height="26" rx="8" fill="#2563eb"/>
    <text x="12" y="17" font-family="Inter" font-size="11.46" font-weight="700" fill="#ffffff">Аналитический прорыв: Линейно-Квадратичный Регулятор</text>

    <!-- Schematic: Quadratic bowl & Exponential response -->
    <g transform="translate(15, 38)">
      <rect width="315" height="100" rx="6" fill="#ffffff" stroke="#e2e8f0"/>

      <!-- Step response comparison: LQR vs Bang-Bang -->
      <line x1="20" y1="85" x2="295" y2="85" stroke="#94a3b8" stroke-width="1"/>
      <line x1="40" y1="15" x2="40" y2="90" stroke="#94a3b8" stroke-width="1"/>
      <text x="280" y="96" font-family="JetBrains Mono" font-size="8.5" fill="#64748b">Время t</text>
      <text x="25" y="20" font-family="JetBrains Mono" font-size="8.5" fill="#64748b">x(t)</text>

      <!-- Bang-Bang: sharp straight deceleration to 0 -->
      <path d="M 40,25 L 110,65 L 150,85 L 290,85" stroke="#ea580c" stroke-width="2" fill="none"/>
      <text x="115" y="55" font-family="Inter" font-size="8" font-weight="700" fill="#ea580c">Bang-Bang: быстро, излом u</text>

      <!-- LQR: smooth exponential curve -->
      <path d="M 40,25 Q 90,80 290,85" stroke="#059669" stroke-width="2.5" fill="none"/>
      <text x="180" y="75" font-family="Inter" font-size="8" font-weight="700" fill="#059669">LQR: exp((A-BK)t) (гладко)</text>

      <text x="15" y="10" font-family="Inter" font-size="8.5" font-weight="700" fill="#1e293b">Отклик системы на начальное отклонение x₀</text>
    </g>

    <!-- CARE Formula box -->
    <g transform="translate(15, 148)" font-family="Inter" font-size="10.5" fill="#1e293b">
      <rect width="315" height="42" rx="4" fill="#ecfdf5" stroke="#a7f3d0" stroke-width="1"/>
      <text x="10" y="18" font-family="JetBrains Mono" font-size="9.5" font-weight="700" fill="#065f46">AᵀP + PA - P B R⁻¹ Bᵀ P + Q = 0  (CARE)</text>
      <text x="10" y="34" font-family="JetBrains Mono" font-size="9.5" font-weight="700" fill="#059669">V(x) = xᵀ P x  ⇒  u*(t) = -K x(t),  K = R⁻¹ Bᵀ P</text>

      <text x="0" y="58" font-weight="700" fill="#0f172a">• Почему LQR фундаментален для практики:</text>
      <text x="10" y="72" font-size="9.5" fill="#475569">1. Функция цены квадратична: V(x) = xᵀ P x точно!</text>
      <text x="10" y="86" font-size="9.5" fill="#475569">2. Обратная связь u = -Kx линейна и рассчитывается за 1 мкс.</text>
      <text x="10" y="100" font-size="9.5" fill="#475569">3. Баланс точности (Q) и расхода энергии/моментов (R).</text>
      <text x="0" y="118" font-weight="700" fill="#b45309">⚠ Ограничение: не учитывает барьеры неравенств |u| ≤ u_max.</text>
    </g>
  </g>
</svg>