<svg xmlns="http://www.w3.org/2000/svg" viewBox="0 0 760 360" width="100%" height="100%">
  <rect width="100%" height="100%" rx="10" fill="#ffffff" stroke="#e2e8f0" stroke-width="1.5"/>

  <!-- Left: Holonomic -->
  <g transform="translate(20, 20)">
    <rect width="345" height="320" rx="8" fill="#f8fafc" stroke="#e2e8f0" stroke-width="1"/>
    <text x="16" y="24" font-family="Inter, sans-serif" font-size="14" font-weight="700" fill="#0f172a">1. Голономная точка (A*, RRT)</text>
    <text x="16" y="39" font-family="Inter, sans-serif" font-size="11" fill="#dc2626">Иллюзия: мгновенная смена направления (a = ∞)</text>

    <!-- Grid lines -->
    <path d="M40,70 H305 M40,110 H305 M40,150 H305 M40,190 H305 M40,230 H305" stroke="#f1f5f9" stroke-width="1"/>
    <path d="M60,60 V240 M110,60 V240 M160,60 V240 M210,60 V240 M260,60 V240" stroke="#f1f5f9" stroke-width="1"/>

    <!-- Sharp 90 deg geometric path -->
    <path d="M60,210 L160,210 L160,80 L260,80" stroke="#ef4444" stroke-width="3.5" fill="none" stroke-linejoin="miter"/>
    
    <!-- Start & Goal -->
    <circle cx="60" cy="210" r="7" fill="#059669" stroke="#ffffff" stroke-width="2"/>
    <text x="45" y="232" font-family="Inter" font-size="11" font-weight="700" fill="#059669">Старт S</text>

    <circle cx="260" cy="80" r="7" fill="#0284c7" stroke="#ffffff" stroke-width="2"/>
    <text x="245" y="68" font-family="Inter" font-size="11" font-weight="700" fill="#0284c7">Цель G</text>

    <!-- Sharp turn highlight -->
    <circle cx="160" cy="210" r="14" fill="none" stroke="#ef4444" stroke-width="1.5" stroke-dasharray="3,3"/>
    <text x="175" y="205" font-family="Inter" font-size="10.5" font-weight="700" fill="#dc2626">Излом 90°: v_y = 0 → v_y &gt; 0</text>
    <text x="175" y="218" font-family="JetBrains Mono" font-size="9" fill="#991b1b">Требует бесконечного а_y</text>

    <rect x="14" y="246" width="317" height="62" rx="5" fill="#fef2f2" stroke="#fca5a5" stroke-width="1"/>
    <text x="22" y="266" font-family="Inter, sans-serif" font-size="11" font-weight="700" fill="#991b1b">Геометрический путь физически невыполним</text>
    <text x="22" y="283" font-family="Inter, sans-serif" font-size="10" fill="#7f1d1d">Колесный робот не может смещаться вбок без проскальзывания.</text>
    <text x="22" y="297" font-family="Inter, sans-serif" font-size="10" fill="#7f1d1d">Попытка повторить угол ведет к срыву траектории или остановке.</text>
  </g>

  <!-- Right: Non-holonomic -->
  <g transform="translate(395, 20)">
    <rect width="345" height="320" rx="8" fill="#f8fafc" stroke="#e2e8f0" stroke-width="1"/>
    <text x="16" y="24" font-family="Inter, sans-serif" font-size="14" font-weight="700" fill="#0f172a">2. Неголономный робот (Kinematic Car)</text>
    <text x="16" y="39" font-family="Inter, sans-serif" font-size="11" fill="#059669">Связь Пфаффа: dy·cos θ - dx·sin θ = 0 (v_бок = 0)</text>

    <!-- Smooth Dubins-like turning arcs -->
    <path d="M60,210 C120,210 160,180 160,145 C160,110 200,80 260,80" stroke="#059669" stroke-width="3.5" fill="none" stroke-linecap="round"/>

    <!-- Car body at Start -->
    <g transform="translate(60, 210)">
      <rect x="-14" y="-8" width="28" height="16" rx="3" fill="#334155"/>
      <line x1="14" y1="0" x2="26" y2="0" stroke="#059669" stroke-width="2.5"/>
      <circle cx="0" cy="0" r="3" fill="#ffffff"/>
    </g>
    <text x="45" y="235" font-family="Inter" font-size="11" font-weight="700" fill="#059669">S (θ = 0°)</text>

    <!-- Car body mid-turn -->
    <g transform="translate(160, 145) rotate(-90)">
      <rect x="-12" y="-7" width="24" height="14" rx="2" fill="#334155" opacity="0.8"/>
      <line x1="12" y1="0" x2="22" y2="0" stroke="#059669" stroke-width="2"/>
    </g>

    <!-- Turning circle visualization -->
    <circle cx="110" cy="160" r="50" fill="none" stroke="#cbd5e1" stroke-width="1.2" stroke-dasharray="4,4"/>
    <line x1="110" y1="160" x2="145" y2="195" stroke="#64748b" stroke-width="1"/>
    <text x="115" y="180" font-family="JetBrains Mono" font-size="10" font-weight="600" fill="#475569">R_min</text>

    <!-- Goal -->
    <circle cx="260" cy="80" r="7" fill="#0284c7" stroke="#ffffff" stroke-width="2"/>
    <line x1="260" y1="80" x2="285" y2="80" stroke="#0284c7" stroke-width="2.5"/>
    <text x="245" y="68" font-family="Inter" font-size="11" font-weight="700" fill="#0284c7">G (θ = 0°)</text>

    <rect x="14" y="246" width="317" height="62" rx="5" fill="#ecfdf5" stroke="#a7f3d0" stroke-width="1"/>
    <text x="22" y="266" font-family="Inter, sans-serif" font-size="11" font-weight="700" fill="#065f46">Физически осуществимая траектория</text>
    <text x="22" y="283" font-family="Inter, sans-serif" font-size="10" fill="#047857">Траектория строится из дуг окружностей с кривизной |κ| ≤ 1/R_min.</text>
    <text x="22" y="297" font-family="Inter, sans-serif" font-size="9.5" fill="#047857">R_min = L / tan(δ_max) — база L и предел угла колес δ.</text>
  </g>
</svg>