<svg xmlns="http://www.w3.org/2000/svg" viewBox="0 0 520 550" width="100%" height="100%">
  <rect width="100%" height="100%" rx="10" fill="#ffffff" stroke="#e2e8f0" stroke-width="1.5"/>

  <!-- Title & Legend -->
  <g transform="translate(24, 28)">
    <text x="0" y="0" font-family="Inter, sans-serif" font-size="15" font-weight="700" fill="#0f172a">Алгоритм переподключения RRT* (Rewiring Step)</text>
    <text x="0" y="20" font-family="Inter, sans-serif" font-size="11.5" fill="#64748b">Окрестность радиуса r_RRT* вокруг q_new проверяется на оптимизацию c(v)</text>
  </g>

  <!-- Rewiring Circle Area -->
  <circle cx="270" cy="185" r="95" fill="#f0fdf4" stroke="#86efac" stroke-width="1.5" stroke-dasharray="4,3"/>
  <line x1="270" y1="185" x2="337.16499999999996" y2="117.83500000000001" stroke="#10b981" stroke-width="1.2"/>
  <text x="305" y="145" font-family="JetBrains Mono, monospace" font-size="10" fill="#059669">r_RRT*</text>

  <!-- Existing Tree Edges -->
  <g stroke="#94a3b8" stroke-width="2">
    <line x1="55" y1="185" x2="135" y2="125"/>
    <line x1="55" y1="185" x2="145" y2="240"/>
    <line x1="135" y1="125" x2="185" y2="160"/>
    <line x1="145" y1="240" x2="330" y2="245"/>
  </g>

  <!-- OLD SUBOPTIMAL EDGE (TO BE DROPPED) -->
  <line x1="135" y1="125" x2="345" y2="150" stroke="#ef4444" stroke-width="2.5" stroke-dasharray="5,3"/>
  <text x="215" y="128" font-family="Inter, sans-serif" font-size="11" font-weight="700" fill="#dc2626">✗ Старое ребро (c = 22.8)</text>

  <!-- NEW OPTIMAL EDGE TO q_new -->
  <line x1="185" y1="160" x2="270" y2="185" stroke="#0284c7" stroke-width="3.5"/>
  <text x="195" y="195" font-family="JetBrains Mono, monospace" font-size="10" fill="#0369a1">c(q_new) = 13.8</text>

  <!-- NEW REWIRED EDGE (q_new -> v) -->
  <line x1="270" y1="185" x2="345" y2="150" stroke="#059669" stroke-width="3.5" stroke-linecap="round"/>
  <text x="280" y="165" font-family="Inter, sans-serif" font-size="11" font-weight="700" fill="#059669">✓ Новое ребро (c = 17.5)</text>

  <!-- Nodes -->
  <circle cx="55" cy="185" r="6.5" fill="#0f172a"/>
  <text x="35" y="208" font-family="JetBrains Mono" font-size="10.5" fill="#475569">q_start</text>

  <circle cx="135" cy="125" r="5" fill="#64748b"/>
  <circle cx="145" cy="240" r="5" fill="#64748b"/>
  <circle cx="185" cy="160" r="5" fill="#0284c7"/>
  <circle cx="330" cy="245" r="5" fill="#64748b"/>

  <!-- Target Node v -->
  <circle cx="345" cy="150" r="7" fill="#059669" stroke="#ffffff" stroke-width="2"/>
  <text x="358" y="154" font-family="Inter" font-size="12" font-weight="700" fill="#059669">Вершина v</text>

  <!-- New Sample q_new -->
  <circle cx="270" cy="185" r="7.5" fill="#0284c7" stroke="#ffffff" stroke-width="2"/>
  <text x="254" y="172" font-family="Inter" font-size="12" font-weight="700" fill="#0284c7">q_new</text>

  <!-- Mathematical explanation card (BELOW DIAGRAM) -->
  <g transform="translate(24, 305)">
    <rect width="472" height="220" rx="8" fill="#f8fafc" stroke="#e2e8f0" stroke-width="1"/>
    <text x="18" y="26" font-family="Inter, sans-serif" font-size="13.5" font-weight="700" fill="#0f172a">Условие переподключения (Rewire):</text>
    <rect x="18" y="38" width="436" height="40" rx="5" fill="#eff6ff" stroke="#bfdbfe" stroke-width="1"/>
    <text x="28" y="63" font-family="JetBrains Mono, monospace" font-size="12" font-weight="700" fill="#1e40af">cost(q_new) + ||q_new - v|| &lt; cost(v)</text>

    <text x="18" y="102" font-family="Inter, sans-serif" font-size="11" fill="#334155"><tspan font-weight="700">1. Выбор родителя:</tspan> q_new соединяется с узлом с мин. cost(u) + ||u - q_new||.</text>
    <text x="18" y="128" font-family="Inter, sans-serif" font-size="11" fill="#334155"><tspan font-weight="700">2. Переподключение:</tspan> соседи v выбирают q_new, если это снижает cost(v).</text>
    <text x="18" y="154" font-family="Inter, sans-serif" font-size="11" fill="#334155"><tspan font-weight="700">3. Результат:</tspan> распрямляются изломы, дерево сходится к оптимуму.</text>

    <rect x="18" y="176" width="436" height="26" rx="4" fill="#fef2f2" stroke="#fecaca" stroke-width="0.5"/>
    <text x="26" y="193" font-family="JetBrains Mono, monospace" font-size="10" font-weight="700" fill="#991b1b">P(lim_{n→∞} Cost(RRT*) = Cost*) = 1</text>
  </g>
</svg>