<svg xmlns="http://www.w3.org/2000/svg" viewBox="0 0 700 320" width="100%" height="100%">
  <rect width="100%" height="100%" rx="8" fill="#f8fafc" stroke="#cbd5e1" stroke-width="1.5"/>
  <g transform="translate(40, 30)">
    <text x="0" y="0" font-family="Inter" font-size="14" font-weight="700" fill="#0f172a">Евклидово поле расстояний (ESDF) и изолинии</text>
    <ellipse cx="140" cy="140" rx="120" ry="90" fill="#f0f9ff" stroke="#bae6fd" stroke-width="1.5" stroke-dasharray="4 2"/>
    <ellipse cx="140" cy="140" rx="95" ry="70" fill="#e0f2fe" stroke="#7dd3fc" stroke-width="1.5" stroke-dasharray="4 2"/>
    <ellipse cx="140" cy="140" rx="70" ry="50" fill="#bae6fd" stroke="#38bdf8" stroke-width="2"/>
    <ellipse cx="140" cy="140" rx="45" ry="30" fill="#ef4444" stroke="#b91c1c" stroke-width="2"/>
    <text x="110" y="145" font-family="Inter" font-size="12" font-weight="700" fill="#ffffff">Преграда</text>
    <text x="140" y="98" font-family="JetBrains Mono" font-size="12" fill="#0284c7">SDF = +1.0</text>
    <text x="140" y="78" font-family="JetBrains Mono" font-size="12" fill="#0284c7">SDF = +2.0</text>
    <text x="140" y="58" font-family="JetBrains Mono" font-size="12" fill="#0284c7">SDF = +3.0</text>
  </g>
  <g transform="translate(370, 30)">
    <text x="0" y="0" font-family="Inter" font-size="14" font-weight="700" fill="#0f172a">Градиент ∇ESDF: непрерывные силы отталкивания</text>
    <ellipse cx="150" cy="140" rx="45" ry="30" fill="#fee2e2" stroke="#ef4444" stroke-width="2"/>
    <text x="120" y="145" font-family="Inter" font-size="12" font-weight="700" fill="#991b1b">Преграда</text>
    <path d="M150,110 L150,60 M145,70 L150,55 L155,70" stroke="#0284c7" stroke-width="2.5" fill="#0284c7"/>
    <path d="M195,140 L255,140 M245,135 L260,140 L245,145" stroke="#0284c7" stroke-width="2.5" fill="#0284c7"/>
    <path d="M150,170 L150,220 M145,210 L150,225 L155,210" stroke="#0284c7" stroke-width="2.5" fill="#0284c7"/>
    <path d="M105,140 L45,140 M55,135 L40,140 L55,145" stroke="#0284c7" stroke-width="2.5" fill="#0284c7"/>
    <text x="50" y="255" font-family="JetBrains Mono" font-size="12" fill="#0284c7">F_rep(x) = -∇ESDF(x) / ||∇ESDF||</text>
    <text x="50" y="275" font-family="Inter" font-size="12" fill="#475569">Используется в nvblox, CHOMP и NMPC</text>
  </g>
</svg>